<svg xmlns="http://www.w3.org/2000/svg" xmlns:xlink="http://www.w3.org/1999/xlink" viewBox="0,0,256,256" width="50px" height="50px"><g fill="#c9c9c9" fill-rule="nonzero" stroke="none" stroke-width="1" stroke-linecap="butt" stroke-linejoin="miter" stroke-miterlimit="10" stroke-dasharray="" stroke-dashoffset="0" font-family="none" font-weight="none" font-size="none" text-anchor="none" style="mix-blend-mode: normal"><g transform="scale(5.12,5.12)"><path d="M3,3c-1.65234,0 -3,1.34766 -3,3v3h50v-3c0,-1.65234 -1.34766,-3 -3,-3zM0,11v36h50v-36zM29,15c0.12891,0 0.24609,0.01172 0.375,0.0625c0.51172,0.21094 0.77344,0.80078 0.5625,1.3125l-9,22c-0.16016,0.38672 -0.54297,0.625 -0.9375,0.625c-0.125,0 -0.25,-0.01172 -0.375,-0.0625c-0.51172,-0.21094 -0.77344,-0.80078 -0.5625,-1.3125l9,-22c0.15625,-0.38281 0.54688,-0.62109 0.9375,-0.625zM15.875,21c0.38672,-0.04687 0.79297,0.14063 1,0.5c0.27344,0.48047 0.10547,1.10156 -0.375,1.375l-5.46875,3.125l5.46875,3.125c0.48047,0.27344 0.64844,0.89453 0.375,1.375c-0.18359,0.32422 -0.52734,0.5 -0.875,0.5c-0.16797,0 -0.34375,-0.03516 -0.5,-0.125l-7,-4c-0.3125,-0.17969 -0.5,-0.51562 -0.5,-0.875c0,-0.35937 0.1875,-0.69531 0.5,-0.875l7,-4c0.12109,-0.06641 0.24609,-0.10937 0.375,-0.125zM34.125,21c0.12891,0.01563 0.25391,0.05469 0.375,0.125l7,4c0.3125,0.17969 0.5,0.51563 0.5,0.875c0,0.35938 -0.1875,0.69531 -0.5,0.875l-7,4c-0.15625,0.08984 -0.33203,0.125 -0.5,0.125c-0.34766,0 -0.69141,-0.17578 -0.875,-0.5c-0.27344,-0.48047 -0.10547,-1.10156 0.375,-1.375l5.46875,-3.125l-5.46875,-3.125c-0.48047,-0.27344 -0.64844,-0.89453 -0.375,-1.375c0.20313,-0.35937 0.61328,-0.54687 1,-0.5z"></path></g></g></svg>